<svg width="100" height="100" viewBox="0 0 100 100" fill="none" xmlns="http://www.w3.org/2000/svg">
<circle cx="50" cy="50" r="50" fill="white"/>
<path d="M13 22.0662C13.04 22.3962 13.08 22.7262 13.12 23.0562C17.45 19.3962 22.08 13.9062 28.52 17.1462C43.58 24.7362 40.73 84.1562 30.68 84.3762C26.68 84.4662 25.11 80.0162 24.51 75.0562C21.36 49.2462 41.31 14.5762 52.35 14.2362C55.35 14.1462 58.67 16.4862 59.9 18.3562C64.11 24.7062 60.6 32.3762 59.85 34.4762C56.76 43.1462 44.4 56.5062 33.99 53.7462C32.62 53.3862 32.63 50.8862 35.73 51.5162C41.61 52.7262 50.44 87.9362 71.46 87.9362C76.46 87.9362 81.08 86.1562 95.46 70.9362C82.29 83.8562 76.46 83.9362 72.46 83.9362C54.35 83.9362 44.46 44.9362 30.41 49.1562C27.61 50.2762 26.92 53.6162 30.14 55.2362C34.95 57.6562 47.21 54.5262 57.09 44.8962C76 26.4662 67.5 6.35616 51.74 9.28616C42.68 10.9762 30.1 30.0562 24.58 50.8862C19.39 70.4562 20.73 93.6662 33.4 90.1062C47.18 86.2262 45.13 19.4562 29.16 14.0562C23.86 12.2662 17.96 16.8662 13 22.0662Z" fill="#005961"/>
</svg>
