<svg width="83" height="82" viewBox="0 0 83 82" fill="none" xmlns="http://www.w3.org/2000/svg">
<path d="M0 13.0662C0.04 13.3962 0.0799999 13.7262 0.12 14.0562C4.45 10.3962 9.08 4.90616 15.52 8.14616C30.58 15.7362 27.73 75.1562 17.68 75.3762C13.68 75.4662 12.11 71.0162 11.51 66.0562C8.36 40.2462 28.31 5.57616 39.35 5.23616C42.35 5.14616 45.67 7.48616 46.9 9.35616C51.11 15.7062 47.6 23.3762 46.85 25.4762C43.76 34.1462 31.4 47.5062 20.99 44.7462C19.62 44.3862 19.63 41.8862 22.73 42.5162C28.61 43.7262 37.44 78.9362 58.46 78.9362C63.46 78.9362 68.08 77.1562 82.46 61.9362C69.29 74.8562 63.46 74.9362 59.46 74.9362C41.35 74.9362 31.46 35.9362 17.41 40.1562C14.61 41.2762 13.92 44.6162 17.14 46.2362C21.95 48.6562 34.21 45.5262 44.09 35.8962C63 17.4662 54.5 -2.64384 38.74 0.286161C29.68 1.97616 17.1 21.0562 11.58 41.8862C6.39 61.4562 7.73 84.6662 20.4 81.1062C34.18 77.2262 32.13 10.4562 16.16 5.05616C10.86 3.26616 4.96 7.86616 0 13.0662Z" fill="#005961"/>
</svg>
