<svg width="100" height="100" viewBox="0 0 100 100" fill="none" xmlns="http://www.w3.org/2000/svg">
<circle cx="50" cy="50" r="50" fill="white"/>
<path d="M18.314 30.3548L18.8237 30.2318C18.894 30.2318 18.9292 30.3021 18.9292 30.4427C18.9292 30.5716 18.7241 30.7884 18.314 31.0931C17.9155 31.3978 17.4292 31.5501 16.855 31.5501C16.2925 31.5501 15.8472 31.3861 15.519 31.058C15.2026 30.7298 15.0444 30.3021 15.0444 29.7747C15.0444 28.6615 15.771 27.5599 17.2241 26.4701C18.6772 25.3685 20.4644 24.4896 22.5854 23.8333C24.7065 23.1654 26.7397 22.8314 28.6851 22.8314C31.5327 22.8314 33.6479 23.2943 35.0308 24.2201C36.4253 25.1458 37.1226 26.388 37.1226 27.9466C37.1226 29.9388 35.7397 31.8665 32.9741 33.7298C31.521 34.7142 29.9507 35.4994 28.2632 36.0853C30.1147 36.2845 31.5913 36.8822 32.6929 37.8783C33.5249 38.6283 33.9409 39.5833 33.9409 40.7435C33.9409 41.9037 33.3843 43.0872 32.271 44.2943C31.1694 45.4896 29.6987 46.4857 27.8589 47.2826C26.019 48.0677 24.1382 48.4603 22.2163 48.4603C20.0015 48.4603 18.3726 47.974 17.3296 47.0013C16.8608 46.556 16.6265 46.1634 16.6265 45.8236C16.6265 45.472 16.7144 45.1029 16.8901 44.7162C16.0347 46.263 15.4077 47.429 15.0093 48.2142C14.8335 48.5658 14.4761 48.7415 13.937 48.7415C13.4097 48.7415 12.9995 48.6009 12.7065 48.3197C12.4136 48.0384 12.2671 47.722 12.2671 47.3705C12.2671 47.0189 12.3198 46.7083 12.4253 46.4388C12.9526 45.056 14.8101 41.8216 17.9976 36.7357C21.1968 31.638 23.1538 28.6849 23.8687 27.8763C24.2437 27.4193 25.0933 27.1908 26.4175 27.1908C26.9448 27.1908 27.2085 27.308 27.2085 27.5423C27.2085 27.7181 26.4292 29.0365 24.8706 31.4974C23.312 33.9583 22.4976 35.2474 22.4272 35.3646C24.0562 34.8958 25.7202 34.2572 27.4194 33.4486C29.1304 32.6283 30.6187 31.7025 31.8843 30.6712C33.1616 29.64 33.8003 28.7083 33.8003 27.8763C33.8003 26.5052 32.312 25.8197 29.3354 25.8197C26.2183 25.8197 23.2183 26.6458 20.3354 28.2982C19.6206 28.7083 19.0757 29.0833 18.7007 29.4232C18.3257 29.763 18.1382 30.0033 18.1382 30.1439C18.1382 30.2845 18.1968 30.3548 18.314 30.3548ZM21.478 38.7572C21.2671 38.7572 21.0327 38.5111 20.7749 38.0189C19.6616 39.8001 18.4956 41.7806 17.2769 43.9603C17.8276 43.1986 18.6304 42.8177 19.6851 42.8177C20.3882 42.8177 20.7397 42.9056 20.7397 43.0814C20.7397 43.1517 20.6636 43.2162 20.5112 43.2747C20.0425 43.4505 19.8081 43.7142 19.8081 44.0658C19.8081 44.9095 20.7046 45.3314 22.4976 45.3314C24.9233 45.3314 27.1206 44.4876 29.0894 42.8001C30.144 41.9095 30.6714 41.1302 30.6714 40.4622C30.6714 40.0521 30.2437 39.6009 29.3882 39.1087C28.3921 38.558 26.8745 38.2826 24.8354 38.2826C23.4175 38.2826 22.5093 38.3646 22.1108 38.5287C21.7124 38.681 21.5015 38.7572 21.478 38.7572ZM46.1929 35.2064C46.1929 35.9798 45.8765 36.6595 45.2437 37.2455C44.6226 37.8314 43.9136 38.1244 43.1167 38.1244C42.8589 38.1244 42.689 38.0658 42.6069 37.9486C42.5249 37.8197 42.4839 37.6556 42.4839 37.4564C42.4839 37.2572 42.5073 37.0638 42.5542 36.8763C42.1323 37.0169 41.6636 37.2337 41.1479 37.5267C40.6323 37.8197 39.9995 38.2533 39.2495 38.8275C38.4995 39.4017 38.1245 39.8294 38.1245 40.1107C38.1245 40.2044 38.2593 40.2513 38.5288 40.2513C38.8101 40.2513 39.2378 40.1576 39.812 39.9701C40.3862 39.7708 40.7847 39.6712 41.0073 39.6712C41.2417 39.6712 41.394 39.683 41.4644 39.7064C41.6167 39.7884 41.7808 39.9701 41.9565 40.2513C42.1323 40.5208 42.2202 40.7376 42.2202 40.9017C42.2202 41.054 42.0679 41.2591 41.7632 41.5169C41.4585 41.7747 41.1128 41.974 40.7261 42.1146C40.3394 42.2435 40.0815 42.3431 39.9526 42.4134C37.48 43.7962 36.2437 44.7455 36.2437 45.2611C36.2437 46.1751 37.0229 46.6322 38.5815 46.6322C39.5776 46.6322 40.5796 46.3158 41.5874 45.683C42.4429 45.1439 43.2104 44.599 43.8901 44.0482C44.5815 43.4857 45.0151 43.14 45.1909 43.0111C45.3784 42.8822 45.519 42.8177 45.6128 42.8177C45.9175 42.8177 46.0698 43.1576 46.0698 43.8372C46.0698 44.5169 46.0288 44.9681 45.9468 45.1908C45.8647 45.4017 45.6304 45.6654 45.2437 45.9818C42.7358 48.0208 40.3628 49.0404 38.1245 49.0404C36.9292 49.0404 35.9741 48.8763 35.2593 48.5482C33.9468 47.9505 33.2905 47.0365 33.2905 45.806C33.2905 44.1888 34.4097 42.9642 36.6479 42.1322C36.2026 41.933 35.9155 41.681 35.7866 41.3763C35.6577 41.0599 35.5933 40.5619 35.5933 39.8822C35.5933 39.1908 35.9097 38.4642 36.5425 37.7025C37.187 36.929 37.9722 36.2962 38.8979 35.804C40.9604 34.6908 42.8003 34.1341 44.4175 34.1341C44.8042 34.1341 45.1968 34.2279 45.5952 34.4154C45.9937 34.6029 46.1929 34.8665 46.1929 35.2064ZM54.7007 45.6478C54.7007 46.1634 55.0522 46.4212 55.7554 46.4212C56.1304 46.4212 56.5991 46.2337 57.1616 45.8587C57.7358 45.4837 58.2515 45.0736 58.7085 44.6283C59.9272 43.4212 60.6187 42.8177 60.7827 42.8177C61.0874 42.8177 61.2397 43.2572 61.2397 44.1361C61.2397 45.015 60.9644 45.6185 60.4136 45.9466C58.7378 47.4583 57.4429 48.3783 56.5288 48.7064C56.0132 48.8822 55.4448 48.9642 54.8237 48.9525C54.2026 48.9408 53.5874 48.6712 52.978 48.1439C52.3687 47.6165 52.064 46.9779 52.064 46.2279C52.064 45.4662 52.2632 44.6048 52.6616 43.6439C53.0601 42.683 53.4644 41.8626 53.8745 41.183C54.2964 40.4915 54.812 39.6947 55.4214 38.7923C56.0308 37.8783 56.353 37.3099 56.3882 37.0872L56.353 37.0521C55.9663 37.0872 55.0054 37.849 53.4702 39.3372C51.9468 40.8255 50.687 42.1205 49.6909 43.222C48.6948 44.3236 47.5054 45.7943 46.1226 47.6341C45.7358 48.138 45.4194 48.39 45.1733 48.39C44.9272 48.39 44.5991 48.3138 44.189 48.1615C43.7671 47.9974 43.5093 47.8802 43.4155 47.8099C43.3218 47.7396 43.2749 47.6341 43.2749 47.4935C43.2749 47.3529 43.3159 47.183 43.3979 46.9837C43.48 46.7728 43.562 46.6029 43.644 46.474C43.7144 46.3333 43.8374 46.1224 44.0132 45.8412C44.189 45.5599 44.5347 44.9681 45.0503 44.0658C45.5776 43.1517 46.3804 41.7923 47.4585 39.9876C48.5366 38.183 49.1812 37.0931 49.3921 36.7181C49.8374 35.9447 50.2007 35.3822 50.4819 35.0306C51.0093 34.3626 51.8999 34.0287 53.1538 34.0287C53.4351 34.0287 53.5757 34.2044 53.5757 34.556C53.5757 35.1068 53.0659 36.1439 52.0464 37.6673L51.3081 38.7747C53.3354 36.5247 55.0464 35.1009 56.4409 34.5033C57.1206 34.2103 57.73 34.0638 58.269 34.0638C58.8198 34.0638 59.2534 34.2103 59.5698 34.5033C59.8979 34.7962 60.062 35.1244 60.062 35.4876C60.062 35.8392 59.939 36.2669 59.6929 36.7708C59.4468 37.263 59.1948 37.7083 58.937 38.1068C58.6909 38.4935 58.3628 38.9857 57.9526 39.5833C57.5425 40.181 57.3198 40.5091 57.2847 40.5677C57.2495 40.6146 57.1558 40.7552 57.0034 40.9896C56.8628 41.2122 56.7573 41.3763 56.687 41.4818C56.6167 41.5872 56.4995 41.7747 56.3354 42.0443C56.1714 42.3021 56.0366 42.5189 55.9312 42.6947C55.8374 42.8705 55.7144 43.0872 55.562 43.3451C55.4214 43.6029 55.3042 43.8255 55.2104 44.013C55.1284 44.2005 55.0405 44.4056 54.9468 44.6283C54.7827 45.0384 54.7007 45.3783 54.7007 45.6478ZM64.9136 54.1908C64.855 54.2494 64.6733 54.5423 64.3687 55.0697C64.0757 55.6087 63.7593 56.1478 63.4194 56.6869C63.0796 57.2376 62.6577 57.7591 62.1538 58.2513C61.6616 58.7435 61.2456 59.0072 60.9058 59.0423C60.5776 59.0892 60.3667 59.1126 60.2729 59.1126C59.1948 59.1126 58.6558 58.5677 58.6558 57.4779C58.6558 56.2005 59.3179 54.7064 60.6421 52.9955C61.146 52.3509 61.7788 51.6537 62.5405 50.9037C63.3022 50.1654 63.7183 49.7435 63.7886 49.638C63.8589 49.5443 64.7378 47.9037 66.4253 44.7162C65.3003 45.9466 64.2573 46.9486 63.2964 47.722C62.3354 48.4837 61.4097 48.9115 60.519 49.0052H60.396C59.939 49.0052 59.4878 48.8529 59.0425 48.5482C58.5972 48.2552 58.3745 47.7337 58.3745 46.9837C58.3745 45.8705 58.6733 44.7923 59.271 43.7494C59.4819 43.3861 59.8452 42.7708 60.3608 41.9037C60.8882 41.0365 61.3745 40.1986 61.8198 39.39C62.2417 38.7455 62.6753 37.9955 63.1206 37.14C63.5659 36.2845 63.9058 35.6751 64.1401 35.3119C64.3745 34.9369 64.5972 34.7494 64.8081 34.7494C65.019 34.7494 65.2886 34.8841 65.6167 35.1537C65.9565 35.4115 66.1265 35.722 66.1265 36.0853C66.1265 36.4486 65.3589 38.0247 63.8237 40.8138C62.2886 43.6029 61.521 45.1908 61.521 45.5775C61.521 45.6712 61.5679 45.7181 61.6616 45.7181C61.978 45.7181 62.6753 45.2728 63.7534 44.3822C64.8433 43.4798 66.0444 42.3255 67.3569 40.9193C68.8218 39.3607 69.9702 37.9369 70.8022 36.6478C70.9077 36.4837 70.9897 36.3607 71.0483 36.2787C71.1187 36.1849 71.2007 36.0677 71.2944 35.9271C71.3999 35.7747 71.4819 35.6576 71.5405 35.5755C71.6108 35.4935 71.687 35.3997 71.769 35.2943C71.8628 35.1771 71.9448 35.0892 72.0151 35.0306C72.0854 34.972 72.1616 34.9134 72.2437 34.8548C72.3726 34.7376 72.5132 34.679 72.6655 34.679C72.8296 34.679 73.0698 34.7142 73.3862 34.7845C73.7144 34.8548 73.9077 34.931 73.9663 35.013C74.0366 35.0951 74.1069 35.1712 74.1772 35.2415C74.2944 35.3705 74.353 35.4935 74.353 35.6107C74.353 35.7162 74.3062 35.8626 74.2124 36.0501C74.1187 36.2259 73.5737 37.1517 72.5776 38.8275C69.6479 43.7728 67.6323 47.3822 66.5308 49.6556C68.312 48.1556 70.8198 45.9349 74.0542 42.9935C74.1831 42.888 74.312 42.8353 74.4409 42.8353C74.8042 42.8353 74.9858 43.3919 74.9858 44.5052C74.9858 44.8333 74.9272 45.0501 74.8101 45.1556C71.3062 47.8509 68.0073 50.8626 64.9136 54.1908ZM87.062 34.9955C87.9526 34.9955 88.3979 35.3001 88.3979 35.9095C88.3979 36.2376 88.3218 36.4779 88.1694 36.6302C88.0171 36.7826 87.689 37.2923 87.1851 38.1595C86.6929 39.015 86.1421 40.1165 85.5327 41.4642C84.9351 42.8001 84.5483 43.9427 84.3726 44.8919C84.3374 45.0091 84.3198 45.1732 84.3198 45.3841C84.3198 46.0287 84.4956 46.3509 84.8472 46.3509C85.1987 46.3509 85.6147 46.1869 86.0952 45.8587C86.5757 45.5189 87.0034 45.1615 87.3784 44.7865C87.7534 44.3997 88.1167 44.0072 88.4683 43.6087C88.8315 43.2103 89.0483 42.9818 89.1187 42.9232C89.189 42.8646 89.2944 42.8353 89.4351 42.8353C89.6577 42.8353 89.7925 43.0052 89.8394 43.3451C89.8862 43.6849 89.9097 44.0365 89.9097 44.3997C89.9097 44.763 89.8745 45.015 89.8042 45.1556C89.4644 45.8236 88.7144 46.6263 87.5542 47.5638C86.4058 48.5013 85.3569 48.9701 84.4077 48.9701C83.4702 48.9701 82.7788 48.683 82.3335 48.1087C81.8882 47.5345 81.6655 46.9017 81.6655 46.2103C81.6655 45.5072 81.7827 44.8919 82.0171 44.3646C81.0444 45.6302 79.9253 46.7025 78.6597 47.5814C77.4058 48.4603 76.3804 48.8997 75.5835 48.8997C74.7866 48.8997 74.1362 48.6595 73.6323 48.179C72.9878 47.5814 72.6655 46.7552 72.6655 45.7005C72.6655 44.6341 72.8999 43.5677 73.3687 42.5013C73.8491 41.4232 74.4761 40.4447 75.2495 39.5658C76.0229 38.6751 76.8726 37.8665 77.7983 37.14C79.7437 35.6165 81.5366 34.8548 83.1772 34.8548C83.8101 34.8548 84.3257 34.9603 84.7241 35.1712C85.1226 35.3822 85.3745 35.6458 85.48 35.9622C85.7612 35.5404 85.9956 35.2767 86.1831 35.1712C86.3823 35.054 86.6753 34.9955 87.062 34.9955ZM84.7241 36.9466C82.7202 36.9466 80.646 38.0599 78.5015 40.2865C77.7397 41.0833 77.0366 42.0384 76.3921 43.1517C75.7593 44.265 75.4429 45.0267 75.4429 45.4369C75.4429 45.847 75.5601 46.0521 75.7944 46.0521C76.1226 46.0521 77.0366 45.4076 78.5366 44.1185C80.0366 42.8177 81.0327 41.8626 81.5249 41.2533C82.064 40.5736 83.1304 39.138 84.7241 36.9466Z" fill="#005961"/>
<path d="M54.7812 50.375L55.3438 50.5312C56.6667 50.7292 57.3281 51.125 57.3281 51.7188C57.3281 51.8854 57.2656 52.026 57.1406 52.1406C55.7344 53.401 53.8646 54.7604 51.5312 56.2188C47.9688 58.4375 43.9271 60.5833 39.4062 62.6562C40.8854 63.5 42.8906 64.901 45.4219 66.8594C48.8177 69.3698 50.9062 70.625 51.6875 70.625C51.9583 70.625 52.1875 70.5521 52.375 70.4062C52.5729 70.25 52.6823 70.1719 52.7031 70.1719C52.8802 70.1719 52.9688 70.2552 52.9688 70.4219C52.9688 70.5677 52.7917 70.9844 52.4375 71.6719C52.0938 72.3594 51.7969 72.8125 51.5469 73.0312C51.3073 73.25 50.9219 73.3594 50.3906 73.3594C49.8594 73.3594 49.151 73.099 48.2656 72.5781C47.3802 72.0573 46.4115 71.4062 45.3594 70.625C44.3177 69.8333 43.276 69.0312 42.2344 68.2188C39.599 66.1875 37.8229 64.9844 36.9062 64.6094C33.6979 69.6719 32.0469 72.2917 31.9531 72.4688C31.8698 72.6458 31.7552 72.7917 31.6094 72.9062C31.474 73.0104 31.3854 73.0625 31.3438 73.0625L30.6719 73.1562L30.125 73.125C29.9792 73.125 29.875 73.1458 29.8125 73.1875C29.75 73.2396 29.6823 73.276 29.6094 73.2969C29.5365 73.3177 29.474 73.349 29.4219 73.3906C29.3698 73.4427 29.2865 73.4688 29.1719 73.4688C29.0677 73.4688 28.9167 73.3802 28.7188 73.2031C28.5312 73.0365 28.4375 72.8906 28.4375 72.7656C28.4375 72.6406 28.5104 72.4219 28.6562 72.1094C28.8125 71.7969 30.7344 68.8958 34.4219 63.4062H34.125C33.4271 63.4062 33.0781 63.2188 33.0781 62.8438C33.0781 62.4583 33.25 62.0781 33.5938 61.7031C33.9479 61.3177 34.3021 61.125 34.6562 61.125C35.0104 61.125 35.401 61.1562 35.8281 61.2188C37.7969 58.3125 39.3125 56.0312 40.375 54.375C39.1667 55.5104 38.0208 56.0781 36.9375 56.0781C36.4167 56.0781 36.0052 55.901 35.7031 55.5469C35.401 55.1823 35.25 54.7708 35.25 54.3125C35.25 53.8542 35.3646 53.4792 35.5938 53.1875C35.8333 52.8958 36.0625 52.6927 36.2812 52.5781C36.5 52.4635 36.651 52.4062 36.7344 52.4062C36.8177 52.4062 36.8594 52.4479 36.8594 52.5312L36.7344 52.9062C36.7344 53.0521 36.9583 53.125 37.4062 53.125C37.8542 53.125 38.4792 52.8802 39.2812 52.3906C40.0833 51.8906 40.8698 51.3958 41.6406 50.9062C42.4115 50.4062 42.9896 50.1562 43.375 50.1562C43.7604 50.1562 44.0104 50.2031 44.125 50.2969C44.25 50.3802 44.3594 50.4375 44.4531 50.4688C44.5573 50.4896 44.6406 50.526 44.7031 50.5781C44.7656 50.6302 44.8177 50.6979 44.8594 50.7812C44.901 50.8542 44.9792 50.9375 45.0938 51.0312C45.2083 51.125 45.2656 51.25 45.2656 51.4062C45.2656 51.5625 45.224 51.7083 45.1406 51.8438C43.8177 53.8438 42.1927 56.3646 40.2656 59.4062C42.849 58.0625 45.8021 56.3438 49.125 54.25C52.4479 52.1458 54.2448 50.9062 54.5156 50.5312C54.5781 50.4271 54.6667 50.375 54.7812 50.375ZM57.0156 64.4844C59.474 61.6927 61.5677 60.2969 63.2969 60.2969C63.724 60.2969 64.0729 60.4271 64.3438 60.6875C64.625 60.9375 64.7656 61.2656 64.7656 61.6719C64.7656 62.0781 64.474 62.7604 63.8906 63.7188C63.3177 64.6667 62.7865 65.4688 62.2969 66.125C62.0365 66.4583 61.7396 66.625 61.4062 66.625C61.0833 66.625 60.8281 66.5052 60.6406 66.2656C60.4635 66.026 60.375 65.7448 60.375 65.4219C60.375 64.7031 60.7604 63.8906 61.5312 62.9844L61.5 62.9531C61.1562 62.9844 60.3021 63.6615 58.9375 64.9844C57.5833 66.3073 56.4271 67.4948 55.4688 68.5469C54.5208 69.5885 53.4896 70.8594 52.375 72.3594C52.0521 72.8073 51.776 73.0312 51.5469 73.0312C51.3281 73.0312 51.0365 72.9635 50.6719 72.8281C50.2969 72.6823 50.0729 72.5781 50 72.5156C49.9167 72.4531 49.875 72.349 49.875 72.2031C49.875 72.0573 49.9167 71.8906 50 71.7031C50.0833 71.5052 50.2396 71.2292 50.4688 70.875C50.6875 70.5208 51.0208 69.9479 51.4688 69.1562C51.9271 68.3646 52.6354 67.1667 53.5938 65.5625C54.5521 63.9583 55.125 62.9896 55.3125 62.6562C55.7083 61.9688 56.0312 61.4688 56.2812 61.1562C56.75 60.5625 57.5417 60.2656 58.6562 60.2656C58.9062 60.2656 59.0312 60.4219 59.0312 60.7344C59.0312 61.224 58.5781 62.1458 57.6719 63.5L57.0156 64.4844ZM73.2656 55.8438C73.2656 56.4375 72.9896 57.0365 72.4375 57.6406C71.8854 58.2344 71.3073 58.5312 70.7031 58.5312C70.1094 58.5312 69.8125 58.2188 69.8125 57.5938C69.8125 56.9688 70.0729 56.375 70.5938 55.8125C71.125 55.2396 71.7083 54.9531 72.3438 54.9531C72.625 54.9531 72.849 55.0312 73.0156 55.1875C73.1823 55.3438 73.2656 55.5625 73.2656 55.8438ZM70.7344 69.4844C70.7344 69.7969 70.7031 70.0208 70.6406 70.1562C70.1302 71.1979 69.3177 72.0417 68.2031 72.6875C67.0885 73.3229 66.1198 73.6406 65.2969 73.6406C64.474 73.6406 63.7656 73.3646 63.1719 72.8125C62.5781 72.2604 62.2812 71.6979 62.2812 71.125C62.2812 70.5521 62.5677 69.7188 63.1406 68.625C63.7135 67.5312 64.2865 66.5208 64.8594 65.5938C65.4323 64.6667 65.7188 64.1667 65.7188 64.0938C65.7188 64.0104 65.6094 63.8542 65.3906 63.625C65.1823 63.3958 65.0781 63.2292 65.0781 63.125C65.0781 63.0104 65.2917 62.724 65.7188 62.2656C66.1562 61.7969 66.6823 61.3385 67.2969 60.8906C67.9219 60.4323 68.3958 60.2031 68.7188 60.2031C69.0521 60.2031 69.349 60.349 69.6094 60.6406C69.8698 60.9323 70 61.1979 70 61.4375C70 61.6771 68.7604 63.9323 66.2812 68.2031C66.25 68.2656 66.1615 68.4062 66.0156 68.625C65.8802 68.8333 65.7708 69.0104 65.6875 69.1562C65.6146 69.2917 65.526 69.4583 65.4219 69.6562C65.2135 70.0729 65.1094 70.4219 65.1094 70.7031C65.1094 71.0573 65.349 71.2344 65.8281 71.2344C66.3073 71.2344 66.8021 71.0729 67.3125 70.75C67.8333 70.4167 68.2812 70.0521 68.6562 69.6562C69.6354 68.6042 70.1927 68.0781 70.3281 68.0781C70.599 68.0781 70.7344 68.5469 70.7344 69.4844ZM69.8438 73.375L68.8438 73.1562C68.5417 73.125 68.2917 72.9323 68.0938 72.5781C68.0417 72.4844 68.0104 72.4271 68 72.4062C67.9792 72.3854 67.9688 72.3594 67.9688 72.3281C67.9688 72.2969 67.9792 72.2552 68 72.2031C68.0208 72.1406 68.0521 72.0625 68.0938 71.9688C68.1354 71.8646 68.1719 71.7604 68.2031 71.6562C68.4219 70.9167 70.25 67.4375 73.6875 61.2188C77.125 55 78.9219 51.7969 79.0781 51.6094C79.2448 51.4115 79.3646 51.2708 79.4375 51.1875C79.5208 51.0938 79.6094 51.0156 79.7031 50.9531C79.8073 50.8906 79.8802 50.849 79.9219 50.8281C79.974 50.8073 80.0677 50.776 80.2031 50.7344C80.349 50.6823 80.4948 50.6302 80.6406 50.5781C80.7969 50.526 80.9583 50.4583 81.125 50.375C81.2917 50.2812 81.4062 50.2188 81.4688 50.1875C81.5312 50.1458 81.6094 50.125 81.7031 50.125C81.8073 50.125 81.901 50.1719 81.9844 50.2656C82.0781 50.3594 82.125 50.4792 82.125 50.625V50.7344C82.0729 50.9323 80.7135 53.401 78.0469 58.1406C75.3906 62.8802 73.9427 65.474 73.7031 65.9219C74.5156 65.599 75.7135 64.8021 77.2969 63.5312C78.8802 62.2604 79.6771 61.4167 79.6875 61C79.7083 60.5833 79.8542 60.2812 80.125 60.0938C80.3958 59.9062 80.6875 59.8125 81 59.8125C81.3229 59.8125 81.5938 59.9219 81.8125 60.1406C82.0417 60.349 82.151 60.6979 82.1406 61.1875C82.1302 61.6667 81.8594 62.2812 81.3281 63.0312C80.7969 63.7708 80.1615 64.4583 79.4219 65.0938C77.8281 66.4479 76.5 67.3438 75.4375 67.7812C76.2812 70.0625 77.25 71.2031 78.3438 71.2031C78.9375 71.1198 79.6667 70.6354 80.5312 69.75C80.8542 69.4271 81.1667 69.1042 81.4688 68.7812C81.7708 68.4479 81.9531 68.25 82.0156 68.1875C82.0885 68.125 82.1875 68.0938 82.3125 68.0938C82.5104 68.0938 82.6302 68.2448 82.6719 68.5469C82.7135 68.849 82.7344 69.1615 82.7344 69.4844C82.7344 69.8073 82.7031 70.0312 82.6406 70.1562C82.3385 70.7396 81.6771 71.4531 80.6562 72.2969C79.6354 73.1302 78.6667 73.5469 77.75 73.5469C77.0938 73.5469 76.5729 73.4219 76.1875 73.1719C75.8021 72.9219 75.5 72.7135 75.2812 72.5469C75.0625 72.3802 74.8385 72.1562 74.6094 71.875C74.3802 71.5833 74.1875 71.3438 74.0312 71.1562C73.8854 70.9688 73.7135 70.7083 73.5156 70.375C73.3281 70.0417 73.1927 69.8073 73.1094 69.6719C73.026 69.526 72.901 69.2969 72.7344 68.9844C72.5781 68.6615 72.4896 68.4844 72.4688 68.4531C72.2812 68.8385 72.0729 69.2552 71.8438 69.7031C71.6146 70.151 71.4062 70.5677 71.2188 70.9531C71.0312 71.3385 70.8594 71.6927 70.7031 72.0156C70.5469 72.3281 70.4167 72.5885 70.3125 72.7969C70.2188 73.0052 70.1667 73.1146 70.1562 73.125C70.0833 73.2917 69.9792 73.375 69.8438 73.375Z" fill="#005961"/>
</svg>
