<svg width="100" height="100" fill="none" xmlns="http://www.w3.org/2000/svg"><circle cx="50" cy="50" r="50" fill="#fff"/><path d="m18.314 30.355.51-.123c.07 0 .105.07.105.21 0 .13-.205.346-.615.651-.398.305-.885.457-1.459.457-.563 0-1.008-.164-1.336-.492-.316-.328-.475-.756-.475-1.283 0-1.113.727-2.215 2.18-3.305 1.453-1.101 3.24-1.98 5.361-2.637 2.121-.668 4.155-1.002 6.1-1.002 2.848 0 4.963.463 6.346 1.39 1.394.925 2.092 2.167 2.092 3.726 0 1.992-1.383 3.92-4.149 5.783a20.133 20.133 0 0 1-4.71 2.355c1.85.2 3.327.797 4.429 1.793.832.75 1.248 1.705 1.248 2.865 0 1.16-.557 2.344-1.67 3.551-1.102 1.196-2.572 2.192-4.412 2.989-1.84.785-3.72 1.177-5.643 1.177-2.215 0-3.843-.486-4.886-1.459-.47-.445-.703-.838-.703-1.177 0-.352.087-.721.263-1.108a122.147 122.147 0 0 0-1.88 3.498c-.176.352-.534.528-1.073.528-.527 0-.938-.141-1.23-.422-.293-.282-.44-.598-.44-.95 0-.351.053-.662.158-.931.528-1.383 2.385-4.617 5.573-9.703 3.199-5.098 5.156-8.051 5.87-8.86.376-.457 1.225-.685 2.55-.685.527 0 .79.117.79.351 0 .176-.779 1.494-2.337 3.955a885.408 885.408 0 0 0-2.444 3.868 32.663 32.663 0 0 0 4.992-1.916c1.711-.82 3.2-1.746 4.465-2.778 1.278-1.031 1.916-1.963 1.916-2.795 0-1.37-1.488-2.056-4.465-2.056-3.117 0-6.117.826-9 2.478-.714.41-1.26.785-1.634 1.125-.375.34-.563.58-.563.72 0 .142.059.212.176.212zm3.164 8.402c-.21 0-.445-.246-.703-.738a142.057 142.057 0 0 0-3.498 5.941c.55-.761 1.353-1.142 2.408-1.142.703 0 1.055.088 1.055.263 0 .07-.076.135-.229.194-.468.175-.703.44-.703.79 0 .845.897 1.266 2.69 1.266 2.425 0 4.623-.843 6.591-2.53 1.055-.892 1.582-1.67 1.582-2.339 0-.41-.427-.861-1.283-1.353-.996-.551-2.514-.826-4.553-.826-1.418 0-2.326.082-2.724.246-.399.152-.61.228-.633.228zm24.715-3.55c0 .773-.316 1.453-.95 2.038-.62.586-1.33.88-2.126.88-.258 0-.428-.06-.51-.176a.902.902 0 0 1-.123-.493c0-.199.023-.392.07-.58-.422.14-.89.358-1.406.65-.516.294-1.149.727-1.899 1.301-.75.575-1.125 1.002-1.125 1.284 0 .093.135.14.405.14.281 0 .709-.093 1.283-.28.574-.2.973-.3 1.195-.3.235 0 .387.012.457.035.153.082.317.264.492.545.176.27.264.487.264.65 0 .153-.152.358-.457.616-.304.258-.65.457-1.037.598-.387.128-.645.228-.773.298-2.473 1.383-3.71 2.333-3.71 2.848 0 .914.78 1.371 2.338 1.371.997 0 1.999-.316 3.006-.949a23.872 23.872 0 0 0 2.303-1.635 47.56 47.56 0 0 1 1.3-1.037c.188-.129.329-.193.423-.193.304 0 .457.34.457 1.02 0 .679-.041 1.13-.123 1.353-.082.21-.317.474-.703.79-2.508 2.04-4.881 3.06-7.12 3.06-1.195 0-2.15-.165-2.865-.493-1.312-.598-1.968-1.512-1.968-2.742 0-1.617 1.119-2.842 3.357-3.674-.445-.199-.733-.451-.861-.756-.13-.316-.194-.814-.194-1.494 0-.691.317-1.418.95-2.18a7.787 7.787 0 0 1 2.355-1.898c2.062-1.113 3.902-1.67 5.52-1.67.386 0 .779.094 1.177.281.399.188.598.452.598.791zm8.508 10.44c0 .516.351.774 1.054.774.375 0 .844-.187 1.407-.562.574-.375 1.09-.785 1.547-1.23 1.218-1.208 1.91-1.811 2.074-1.811.304 0 .457.44.457 1.318 0 .879-.276 1.482-.826 1.81-1.676 1.512-2.971 2.432-3.885 2.76a4.963 4.963 0 0 1-1.705.246c-.621-.011-1.237-.28-1.846-.808-.61-.527-.914-1.166-.914-1.916 0-.762.2-1.623.598-2.584.398-.961.802-1.781 1.212-2.461.422-.691.938-1.488 1.547-2.39.61-.915.932-1.483.967-1.706l-.035-.035c-.387.035-1.348.797-2.883 2.285-1.523 1.488-2.783 2.783-3.78 3.885-.995 1.102-2.185 2.572-3.567 4.412-.387.504-.704.756-.95.756s-.574-.076-.984-.229c-.422-.164-.68-.28-.773-.351-.094-.07-.141-.176-.141-.317 0-.14.04-.31.123-.51.082-.21.164-.38.246-.509.07-.14.193-.352.37-.633.175-.281.52-.873 1.036-1.775.528-.914 1.33-2.274 2.409-4.078a229.153 229.153 0 0 0 1.933-3.27c.445-.773.809-1.336 1.09-1.687.527-.668 1.418-1.002 2.672-1.002.281 0 .422.175.422.527 0 .55-.51 1.588-1.53 3.111l-.738 1.108c2.027-2.25 3.738-3.674 5.133-4.272.68-.293 1.289-.44 1.828-.44.55 0 .984.147 1.3.44.329.293.493.621.493.985 0 .351-.123.779-.37 1.283-.245.492-.497.937-.755 1.336a53.03 53.03 0 0 1-.984 1.476c-.41.598-.633.926-.668.985-.035.047-.13.187-.282.422-.14.222-.246.386-.316.492-.07.105-.188.293-.352.562-.164.258-.298.475-.404.65-.094.176-.217.393-.369.651-.14.258-.258.48-.352.668-.082.188-.17.393-.263.615-.164.41-.246.75-.246 1.02zm10.213 8.544c-.059.058-.24.351-.545.879-.293.539-.61 1.078-.95 1.617a8.238 8.238 0 0 1-1.265 1.564c-.492.492-.908.756-1.248.791a6.01 6.01 0 0 1-.633.07c-1.078 0-1.617-.544-1.617-1.634 0-1.278.662-2.772 1.986-4.483a22.077 22.077 0 0 1 1.898-2.091c.762-.739 1.178-1.16 1.249-1.266.07-.094.949-1.734 2.636-4.922-1.125 1.23-2.168 2.233-3.129 3.006-.96.762-1.886 1.19-2.777 1.283h-.123c-.457 0-.908-.152-1.354-.457-.445-.293-.668-.814-.668-1.564 0-1.114.3-2.192.897-3.235.21-.363.574-.978 1.09-1.845a67.674 67.674 0 0 0 1.459-2.514c.422-.645.855-1.395 1.3-2.25.446-.855.786-1.465 1.02-1.828.234-.375.457-.563.668-.563.211 0 .48.135.809.405.34.257.51.568.51.931 0 .364-.768 1.94-2.303 4.729s-2.303 4.377-2.303 4.764c0 .093.047.14.14.14.317 0 1.014-.445 2.092-1.336 1.09-.902 2.291-2.056 3.604-3.463 1.465-1.558 2.613-2.982 3.445-4.271.106-.164.188-.287.246-.37a7.86 7.86 0 0 0 .246-.35l.246-.352c.07-.083.147-.176.229-.282.094-.117.176-.205.246-.263.07-.059.147-.118.229-.176a.615.615 0 0 1 .421-.176c.165 0 .405.035.721.105.328.07.522.147.58.229.07.082.14.158.211.229.117.129.176.252.176.369 0 .105-.047.252-.14.44-.094.175-.64 1.1-1.635 2.776-2.93 4.946-4.946 8.555-6.047 10.829 1.781-1.5 4.289-3.721 7.523-6.663a.611.611 0 0 1 .387-.158c.363 0 .545.557.545 1.67 0 .328-.059.545-.176.65a80.593 80.593 0 0 0-9.896 9.036zm22.148-19.196c.89 0 1.336.305 1.336.915 0 .328-.076.568-.229.72-.152.153-.48.662-.984 1.53-.492.855-1.043 1.957-1.652 3.304-.598 1.336-.985 2.479-1.16 3.428a1.79 1.79 0 0 0-.053.492c0 .645.176.967.527.967.352 0 .768-.164 1.248-.492.48-.34.908-.698 1.283-1.073.375-.386.739-.779 1.09-1.177.364-.399.58-.627.65-.686.071-.058.176-.088.317-.088.223 0 .358.17.404.51.047.34.07.691.07 1.055 0 .363-.035.615-.105.756-.34.668-1.09 1.47-2.25 2.408-1.148.937-2.197 1.406-3.146 1.406-.938 0-1.63-.287-2.075-.861-.445-.575-.668-1.207-.668-1.899 0-.703.118-1.318.352-1.845a15.045 15.045 0 0 1-3.357 3.216c-1.254.88-2.28 1.319-3.076 1.319-.797 0-1.448-.24-1.952-.721-.644-.598-.967-1.424-.967-2.479 0-1.066.235-2.132.704-3.199a11.506 11.506 0 0 1 1.88-2.935 18.47 18.47 0 0 1 2.55-2.426c1.945-1.523 3.738-2.285 5.378-2.285.633 0 1.149.105 1.547.316.399.211.65.475.756.791.281-.422.516-.685.703-.79.2-.118.492-.176.879-.176zm-2.338 1.952c-2.004 0-4.078 1.113-6.223 3.34-.761.796-1.464 1.751-2.109 2.865-.633 1.113-.95 1.875-.95 2.285 0 .41.118.615.352.615.329 0 1.243-.644 2.743-1.934 1.5-1.3 2.496-2.255 2.988-2.865.539-.68 1.605-2.115 3.2-4.306zM54.781 50.375l.563.156c1.323.198 1.984.594 1.984 1.188a.55.55 0 0 1-.187.422c-1.407 1.26-3.276 2.62-5.61 4.078-3.562 2.218-7.604 4.364-12.125 6.437 1.48.844 3.485 2.245 6.016 4.203 3.396 2.51 5.484 3.766 6.266 3.766.27 0 .5-.073.687-.219.198-.156.307-.234.328-.234.177 0 .266.083.266.25 0 .146-.177.562-.532 1.25-.343.687-.64 1.14-.89 1.36-.24.218-.625.327-1.156.327-.532 0-1.24-.26-2.125-.78a33.088 33.088 0 0 1-2.907-1.954 314.97 314.97 0 0 1-3.125-2.406c-2.635-2.031-4.411-3.235-5.328-3.61-3.208 5.063-4.86 7.683-4.953 7.86a1.192 1.192 0 0 1-.344.437c-.135.104-.224.156-.265.156l-.672.094-.547-.031c-.146 0-.25.02-.313.063a.553.553 0 0 1-.203.109.53.53 0 0 0-.187.094c-.052.052-.136.078-.25.078-.104 0-.255-.089-.453-.266-.188-.166-.282-.312-.282-.437s.073-.344.22-.657c.155-.312 2.077-3.213 5.765-8.703h-.297c-.698 0-1.047-.187-1.047-.562 0-.386.172-.766.516-1.14.354-.386.708-.579 1.062-.579.354 0 .745.031 1.172.094 1.969-2.907 3.484-5.188 4.547-6.844-1.208 1.135-2.354 1.703-3.438 1.703-.52 0-.932-.177-1.234-.531a1.884 1.884 0 0 1-.453-1.234c0-.459.115-.834.344-1.126.24-.291.468-.494.687-.609.219-.114.37-.172.453-.172.084 0 .125.042.125.125l-.125.375c0 .146.224.219.672.219.448 0 1.073-.245 1.875-.734.802-.5 1.589-.995 2.36-1.485.77-.5 1.349-.75 1.734-.75s.635.047.75.14c.125.084.234.142.328.173.104.02.188.057.25.11.063.051.115.119.156.202.042.073.12.157.235.25a.46.46 0 0 1 .172.375.82.82 0 0 1-.125.438c-1.323 2-2.948 4.52-4.875 7.562 2.583-1.343 5.536-3.062 8.859-5.156 3.323-2.104 5.12-3.344 5.39-3.719a.294.294 0 0 1 .266-.156zm2.235 14.11c2.458-2.792 4.552-4.188 6.28-4.188.428 0 .777.13 1.048.39.281.25.422.579.422.985s-.292 1.088-.875 2.047a30.15 30.15 0 0 1-1.594 2.406c-.26.333-.557.5-.89.5a.92.92 0 0 1-.766-.36 1.38 1.38 0 0 1-.266-.843c0-.719.385-1.531 1.156-2.438l-.031-.03c-.344.03-1.198.707-2.563 2.03a86.567 86.567 0 0 0-3.468 3.563c-.948 1.041-1.98 2.312-3.094 3.812-.323.448-.599.672-.828.672-.219 0-.51-.068-.875-.203-.375-.146-.6-.25-.672-.312-.083-.063-.125-.167-.125-.313s.042-.312.125-.5c.083-.198.24-.474.469-.828.218-.354.552-.927 1-1.719.458-.791 1.166-1.99 2.125-3.594a203.971 203.971 0 0 0 1.718-2.906c.396-.687.72-1.187.97-1.5.468-.593 1.26-.89 2.374-.89.25 0 .375.156.375.468 0 .49-.453 1.412-1.36 2.766l-.655.984zm16.25-8.641c0 .593-.276 1.192-.829 1.797-.552.593-1.13.89-1.734.89-.594 0-.89-.312-.89-.937s.26-1.219.78-1.782c.532-.572 1.115-.859 1.75-.859.282 0 .506.078.673.234.166.157.25.376.25.657zm-2.532 13.64c0 .313-.03.537-.093.672-.51 1.042-1.323 1.886-2.438 2.531-1.115.636-2.083.954-2.906.954a3.013 3.013 0 0 1-2.125-.829c-.594-.552-.89-1.114-.89-1.687s.286-1.406.859-2.5a49.162 49.162 0 0 1 1.718-3.031c.573-.927.86-1.427.86-1.5 0-.084-.11-.24-.328-.469-.209-.23-.313-.396-.313-.5 0-.115.214-.401.64-.86a11.06 11.06 0 0 1 1.579-1.374c.625-.459 1.099-.688 1.422-.688.333 0 .63.146.89.438.26.291.391.557.391.797s-1.24 2.494-3.719 6.765a5.5 5.5 0 0 1-.265.422c-.136.208-.245.385-.329.531l-.265.5c-.209.417-.313.766-.313 1.047 0 .354.24.531.72.531.478 0 .973-.161 1.484-.484.52-.333.968-.698 1.343-1.094.98-1.052 1.537-1.578 1.672-1.578.271 0 .406.469.406 1.406zm-.89 3.891-1-.219c-.302-.031-.552-.224-.75-.578a6.61 6.61 0 0 1-.094-.172.106.106 0 0 1-.031-.078c0-.031.01-.073.031-.125.02-.062.052-.14.094-.234.041-.104.078-.209.11-.313.218-.74 2.046-4.219 5.484-10.437 3.437-6.219 5.234-9.422 5.39-9.61.167-.198.287-.338.36-.422.083-.093.171-.171.265-.234.104-.062.177-.104.219-.125a4.23 4.23 0 0 1 .281-.094l.438-.156c.156-.052.317-.12.484-.203a9.62 9.62 0 0 1 .344-.188.413.413 0 0 1 .234-.062.37.37 0 0 1 .281.14c.094.094.141.214.141.36v.11c-.052.197-1.412 2.666-4.078 7.406-2.656 4.74-4.104 7.333-4.344 7.78.813-.322 2.01-1.119 3.594-2.39 1.583-1.27 2.38-2.114 2.39-2.531.021-.417.167-.719.438-.906.27-.188.563-.282.875-.282.323 0 .594.11.813.329.229.208.338.557.328 1.047-.01.479-.282 1.093-.813 1.843a11.792 11.792 0 0 1-1.906 2.063c-1.594 1.354-2.922 2.25-3.984 2.687.843 2.281 1.812 3.422 2.906 3.422.594-.083 1.323-.568 2.187-1.453.323-.323.636-.646.938-.969.302-.333.484-.531.547-.594a.441.441 0 0 1 .296-.093c.198 0 .318.15.36.453.041.302.062.615.062.937 0 .323-.03.547-.093.672-.303.584-.964 1.297-1.985 2.14-1.02.834-1.99 1.25-2.906 1.25-.656 0-1.177-.124-1.563-.374-.385-.25-.687-.459-.906-.625a4.082 4.082 0 0 1-.672-.672c-.229-.292-.421-.531-.578-.719a7.81 7.81 0 0 1-.515-.781 23.986 23.986 0 0 0-.407-.703 29.386 29.386 0 0 1-.375-.688c-.156-.322-.244-.5-.265-.53-.188.385-.396.801-.625 1.25-.23.447-.438.864-.625 1.25l-.516 1.062-.39.78a3.544 3.544 0 0 1-.157.329c-.073.167-.177.25-.312.25z" fill="#005961"/></svg>